<svg width="100" height="100" viewBox="0 0 100 100" fill="none" xmlns="http://www.w3.org/2000/svg">
<path d="M27.8973 31.8749H35.8871V40.2218H27.8527L31.8699 47.1849L24.6836 51.3361L20.6663 44.4175L16.6491 51.3361L9.41814 47.1849L13.4354 40.2218H5.40092V31.8749H13.3907L9.41814 24.9564L16.6491 20.7606L20.6663 27.7684L24.6836 20.7606L31.8699 24.9564L27.8973 31.8749Z" fill="#080808"/>
<path d="M63.8326 35.9367C71.6885 35.9367 77.8483 38.7042 80.571 43.3909L81.1959 36.7402H95.524V87H81.1959L80.571 80.3046C77.9375 85.2592 72.3581 87.7588 63.8326 87.7588C50.9329 88.0266 40.2203 76.957 40.3989 61.8701C40.2203 46.7832 50.9329 35.6689 63.8326 35.9367ZM59.0566 71.3775C61.467 73.8325 64.4575 75.0823 67.9838 75.0823C71.51 75.0823 74.5006 73.8325 76.9555 71.3775C79.3659 68.9225 80.571 65.7534 80.571 61.8701C80.571 57.9868 79.3659 54.773 76.9555 52.318C74.5006 49.8631 71.51 48.6579 67.9838 48.6579C64.4575 48.6579 61.467 49.8631 59.0566 52.318C56.6463 54.773 55.4411 57.9868 55.4411 61.8701C55.4411 65.7534 56.6463 68.9225 59.0566 71.3775Z" fill="#0057FF"/>
</svg>
