<svg width="100" height="100" viewBox="0 0 100 100" fill="none" xmlns="http://www.w3.org/2000/svg">
<path d="M35.8871 31.8749V40.2218H27.8527L31.8699 47.1849L24.6836 51.3361L20.6663 44.4175L16.6491 51.3361L9.41814 47.1849L13.4354 40.2218H5.40092V31.8749H13.3907L9.41814 24.9564L16.6491 20.7606L20.6663 27.7684L24.6836 20.7606L31.8699 24.9564L27.8973 31.8749H35.8871Z" fill="white"/>
<path d="M63.8326 35.9367C67.7606 35.9367 71.1827 36.5914 74.0989 37.9007C77.0448 39.21 79.2022 41.0401 80.571 43.3909L81.1959 36.7402H95.524V87H81.1959L80.571 80.3046C77.9227 85.2741 72.3432 87.7588 63.8326 87.7588C59.4881 87.7588 55.5304 86.6875 51.9595 84.545C48.4184 82.3728 45.6064 79.3078 43.5234 75.3501C41.4404 71.3924 40.3989 66.899 40.3989 61.8701C40.3989 56.8411 41.4404 52.3478 43.5234 48.3901C45.6064 44.4324 48.4184 41.3674 51.9595 39.1951C55.5304 37.0229 59.4881 35.9367 63.8326 35.9367ZM59.0566 71.4221C61.467 73.8622 64.4427 75.0823 67.9838 75.0823C71.5249 75.0823 74.5006 73.8622 76.9109 71.4221C79.351 68.9523 80.571 65.7683 80.571 61.8701C80.571 57.9719 79.351 54.8028 76.9109 52.3627C74.5006 49.8928 71.5249 48.6579 67.9838 48.6579C64.4427 48.6579 61.467 49.8928 59.0566 52.3627C56.6463 54.8028 55.4411 57.9719 55.4411 61.8701C55.4411 65.7683 56.6463 68.9523 59.0566 71.4221Z" fill="#0057FF"/>
</svg>
