<svg width="100" height="100" viewBox="0 0 100 100" fill="none" xmlns="http://www.w3.org/2000/svg">
<g clip-path="url(#clip0_14_18)">
<rect width="100" height="100" rx="50" fill="#0057FF"/>
<path fill-rule="evenodd" clip-rule="evenodd" d="M50 26.7479C45.0492 26.7479 40.3013 28.7146 36.8006 32.2153C33.2999 35.716 31.3333 40.4639 31.3333 45.4146V68.4013C31.3332 68.587 31.3816 68.7695 31.4737 68.9308C31.5658 69.0921 31.6984 69.2265 31.8585 69.3208C32.0185 69.4151 32.2003 69.466 32.386 69.4684C32.5717 69.4708 32.7549 69.4247 32.9173 69.3346L35.432 67.9399C37.0354 67.0488 38.8416 66.5863 40.676 66.597C42.5104 66.6078 44.311 67.0914 45.904 68.0013L47.3546 68.8306C48.1603 69.2908 49.0721 69.5329 50 69.5329C50.9278 69.5329 51.8396 69.2908 52.6453 68.8306L54.096 68.0039C55.6886 67.0937 57.4891 66.6096 59.3236 66.5984C61.158 66.5872 62.9643 67.0492 64.568 67.9399L67.0826 69.3346C67.245 69.4247 67.4282 69.4708 67.6139 69.4684C67.7996 69.466 67.9814 69.4151 68.1415 69.3208C68.3015 69.2265 68.4341 69.0921 68.5262 68.9308C68.6183 68.7695 68.6667 68.587 68.6666 68.4013V45.4146C68.6666 42.9633 68.1838 40.5359 67.2457 38.2712C66.3076 36.0064 64.9326 33.9486 63.1993 32.2153C61.4659 30.4819 59.4081 29.1069 57.1434 28.1689C54.8786 27.2308 52.4513 26.7479 50 26.7479ZM26 45.4146C26 39.0494 28.5285 32.9449 33.0294 28.444C37.5303 23.9432 43.6348 21.4146 50 21.4146C56.3652 21.4146 62.4696 23.9432 66.9705 28.444C71.4714 32.9449 74 39.0494 74 45.4146V68.4013C74 73.2813 68.7573 76.3666 64.4933 73.9986L61.9786 72.6013C61.1766 72.1557 60.2732 71.9245 59.3558 71.9301C58.4383 71.9357 57.5378 72.1779 56.7413 72.6333L55.2933 73.4599C53.6813 74.3814 51.8567 74.866 50 74.866C48.1432 74.866 46.3186 74.3814 44.7066 73.4599L43.2586 72.6333C42.4621 72.1779 41.5616 71.9357 40.6442 71.9301C39.7267 71.9245 38.8233 72.1557 38.0213 72.6013L35.5093 73.9986C31.2426 76.3666 26 73.2813 26 68.4013V45.4146ZM58 48.0813C59.0608 48.0813 60.0782 47.6599 60.8284 46.9097C61.5785 46.1596 62 45.1421 62 44.0813C62 43.0204 61.5785 42.003 60.8284 41.2528C60.0782 40.5027 59.0608 40.0813 58 40.0813C56.9391 40.0813 55.9217 40.5027 55.1715 41.2528C54.4214 42.003 54 43.0204 54 44.0813C54 45.1421 54.4214 46.1596 55.1715 46.9097C55.9217 47.6599 56.9391 48.0813 58 48.0813Z" fill="white"/>
<path d="M38.8889 46.2884C39.6296 41.9081 45.5556 41.9081 46.2963 46.2884" stroke="white" stroke-width="3.7037" stroke-linecap="round"/>
</g>
<defs>
<clipPath id="clip0_14_18">
<rect width="100" height="100" fill="white"/>
</clipPath>
</defs>
</svg>
