<svg width="713" height="258" viewBox="0 0 713 258" fill="none" xmlns="http://www.w3.org/2000/svg">
<path d="M76.627 76.2463C94.4353 76.2463 108.399 82.5197 114.571 93.1439L115.987 78.0676H148.467V192H115.987L114.571 176.823C108.601 188.054 95.953 193.72 76.627 193.72C47.385 194.327 23.101 169.234 23.5058 135.034C23.101 100.834 47.385 75.6392 76.627 76.2463ZM65.8004 156.586C71.2643 162.151 78.0436 164.984 86.037 164.984C94.0305 164.984 100.81 162.151 106.375 156.586C111.839 151.021 114.571 143.837 114.571 135.034C114.571 126.231 111.839 118.946 106.375 113.381C100.81 107.815 94.0305 105.084 86.037 105.084C78.0436 105.084 71.2643 107.815 65.8004 113.381C60.3365 118.946 57.6045 126.231 57.6045 135.034C57.6045 143.837 60.3365 151.021 65.8004 156.586ZM169.817 192V78.0676H202.297L203.814 91.525C211.606 80.5972 222.938 76.2463 241.455 76.2463V105.084C216.766 105.084 203.814 116.315 203.814 135.034V192H169.817ZM373.195 192H339.198V135.034C339.198 115.303 332.722 105.084 317.646 105.084C301.76 105.084 292.856 116.517 292.856 135.034V192H258.858V78.0676H291.338L292.856 93.1439C299.23 81.9126 311.473 76.2463 329.383 76.2463C344.965 76.2463 356.196 81.2043 362.976 91.2214C369.755 101.239 373.195 115.809 373.195 135.034V192ZM441.494 76.2463C459.302 76.2463 473.266 82.5197 479.438 93.1439L480.854 78.0676H513.334V192H480.854L479.438 176.823C473.468 188.054 460.82 193.72 441.494 193.72C412.252 194.327 387.968 169.234 388.373 135.034C387.968 100.834 412.252 75.6392 441.494 76.2463ZM430.667 156.586C436.131 162.151 442.911 164.984 450.904 164.984C458.897 164.984 465.677 162.151 471.242 156.586C476.706 151.021 479.438 143.837 479.438 135.034C479.438 126.231 476.706 118.946 471.242 113.381C465.677 107.815 458.897 105.084 450.904 105.084C442.911 105.084 436.131 107.815 430.667 113.381C425.203 118.946 422.472 126.231 422.472 135.034C422.472 143.837 425.203 151.021 430.667 156.586ZM591.043 162.05L618.362 78.0676H654.586L615.934 192H566.152L527.399 78.0676H563.622L591.043 162.05ZM670.877 193.72C665.716 193.72 661.264 191.899 657.622 188.256C653.878 184.614 652.056 180.162 652.056 175.001C652.056 169.841 653.878 165.49 657.622 161.847C661.264 158.205 665.716 156.383 670.877 156.383C676.037 156.383 680.388 158.205 684.03 161.847C687.673 165.49 689.494 169.841 689.494 175.001C689.494 180.162 687.673 184.614 684.03 188.256C680.388 191.899 676.037 193.72 670.877 193.72Z" fill="#080808"/>
<rect x="188" y="139.001" width="100" height="100" rx="50" fill="#0057FF"/>
<path fill-rule="evenodd" clip-rule="evenodd" d="M238 165.749C233.049 165.749 228.301 167.716 224.801 171.216C221.3 174.717 219.333 179.465 219.333 184.416V207.402C219.333 207.588 219.382 207.771 219.474 207.932C219.566 208.093 219.699 208.228 219.859 208.322C220.019 208.416 220.2 208.467 220.386 208.469C220.572 208.472 220.755 208.426 220.917 208.336L223.432 206.941C225.036 206.05 226.842 205.587 228.676 205.598C230.511 205.609 232.311 206.092 233.904 207.002L235.355 207.832C236.16 208.292 237.072 208.534 238 208.534C238.928 208.534 239.84 208.292 240.645 207.832L242.096 207.005C243.689 206.095 245.489 205.611 247.324 205.599C249.158 205.588 250.964 206.05 252.568 206.941L255.083 208.336C255.245 208.426 255.428 208.472 255.614 208.469C255.8 208.467 255.982 208.416 256.142 208.322C256.302 208.228 256.434 208.093 256.526 207.932C256.618 207.771 256.667 207.588 256.667 207.402V184.416C256.667 181.964 256.184 179.537 255.246 177.272C254.308 175.007 252.933 172.95 251.199 171.216C249.466 169.483 247.408 168.108 245.144 167.17C242.879 166.232 240.451 165.749 238 165.749ZM214 184.416C214 178.05 216.529 171.946 221.03 167.445C225.53 162.944 231.635 160.416 238 160.416C244.365 160.416 250.47 162.944 254.971 167.445C259.472 171.946 262 178.05 262 184.416V207.402C262 212.282 256.757 215.368 252.493 213L249.979 211.602C249.177 211.157 248.273 210.926 247.356 210.931C246.438 210.937 245.538 211.179 244.741 211.634L243.293 212.461C241.681 213.382 239.857 213.867 238 213.867C236.143 213.867 234.319 213.382 232.707 212.461L231.259 211.634C230.462 211.179 229.562 210.937 228.644 210.931C227.727 210.926 226.823 211.157 226.021 211.602L223.509 213C219.243 215.368 214 212.282 214 207.402V184.416ZM246 187.082C247.061 187.082 248.078 186.661 248.829 185.911C249.579 185.161 250 184.143 250 183.082C250 182.021 249.579 181.004 248.829 180.254C248.078 179.504 247.061 179.082 246 179.082C244.939 179.082 243.922 179.504 243.172 180.254C242.422 181.004 242 182.021 242 183.082C242 184.143 242.422 185.161 243.172 185.911C243.922 186.661 244.939 187.082 246 187.082Z" fill="white"/>
<path d="M226.889 185.289C227.63 180.909 233.556 180.909 234.296 185.289" stroke="white" stroke-width="3.7037" stroke-linecap="round"/>
</svg>
